<?xml version="1.0" standalone="no"?>
<!DOCTYPE svg PUBLIC "-//W3C//DTD SVG 20010904//EN"
 "http://www.w3.org/TR/2001/REC-SVG-20010904/DTD/svg10.dtd">
<svg version="1.0" xmlns="http://www.w3.org/2000/svg"
 width="500.000000pt" height="500.000000pt" viewBox="0 0 500.000000 500.000000"
 preserveAspectRatio="xMidYMid meet">
<metadata>
Created by potrace 1.11, written by Peter Selinger 2001-2013
</metadata>
<g transform="translate(0.000000,500.000000) scale(0.100000,-0.100000)"
fill="#000000" stroke="none">
<path d="M3605 4900 c-77 -38 -185 -90 -240 -116 -92 -44 -226 -108 -555 -266
-123 -59 -261 -126 -470 -226 -58 -27 -181 -86 -274 -131 -93 -45 -171 -81
-173 -81 -1 0 -3 158 -3 350 l0 350 -495 0 -495 0 0 -1085 c0 -597 3 -1085 6
-1085 6 0 109 44 204 87 30 14 150 67 265 118 116 51 413 182 660 292 248 110
585 260 750 333 165 73 328 145 363 161 35 16 65 29 67 29 2 0 42 18 89 40 47
22 88 40 90 40 3 0 37 15 78 34 40 18 218 97 395 176 273 121 321 145 314 159
-5 9 -31 63 -59 121 -71 151 -142 298 -246 515 -51 105 -99 205 -107 223 -7
17 -16 32 -19 31 -3 0 -68 -31 -145 -69z"/>
<path d="M2750 2939 c-14 -8 -383 -188 -595 -289 -50 -24 -143 -69 -207 -101
-65 -32 -118 -55 -118 -52 0 3 -7 0 -15 -7 -8 -6 -20 -8 -26 -4 -8 4 -9 3 -5
-4 4 -7 -6 -17 -26 -25 -18 -8 -96 -45 -172 -82 -77 -38 -146 -68 -153 -68 -7
0 -13 -4 -13 -9 0 -4 -15 -14 -32 -22 -18 -7 -63 -28 -100 -45 -37 -17 -71
-31 -74 -30 -4 0 -10 -3 -13 -8 -3 -4 -27 -19 -53 -32 -41 -21 -50 -22 -65
-10 -16 12 -17 12 -6 -2 11 -14 2 -21 -67 -53 -44 -20 -83 -36 -86 -35 -4 0
-11 -5 -15 -13 -5 -7 -9 -435 -9 -950 l0 -938 495 0 495 0 2 626 c3 545 5 628
18 635 8 5 101 50 205 99 105 50 217 104 250 120 l59 28 44 -65 c24 -36 123
-183 220 -327 98 -145 305 -454 462 -689 l285 -426 300 -1 c165 0 438 -1 608
-3 169 -1 307 0 307 2 0 5 -41 73 -53 86 -24 29 -227 337 -227 345 0 4 -4 10
-8 12 -4 2 -81 113 -171 248 -90 135 -172 254 -181 265 -9 11 -96 137 -192
280 -712 1060 -1047 1556 -1051 1554 -1 0 -9 -4 -17 -10z"/>
</g>
</svg>
