<?xml version="1.0" encoding="utf-8"?>
<!-- Generator: Adobe Illustrator 21.0.0, SVG Export Plug-In . SVG Version: 6.00 Build 0)  -->
<svg version="1.1" id="Layer_1" xmlns="http://www.w3.org/2000/svg" xmlns:xlink="http://www.w3.org/1999/xlink" x="0px" y="0px"
	 viewBox="0 0 798.9 138.9" style="enable-background:new 0 0 798.9 138.9;" xml:space="preserve">
<style type="text/css">
	.st0{fill:#FFFFFF;}
</style>
<g>
	<path class="st0" d="M9.1,8.9h6.6v31.7L77.2,8.9l2.9,5.5l-71,37.3V8.9z M49.9,69l38.4,64.1l-5.5,3.3l-35-58.3L15.7,93.8v42.6H9.1
		V89.6L49.9,69z"/>
	<path class="st0" d="M230.6,72.7c0,36.8-28,66.3-66.8,66.3s-66.8-29.5-66.8-66.3s28-66.3,66.8-66.3S230.6,35.9,230.6,72.7z
		 M224,72.7c0-33-25.1-60.1-60.3-60.1s-60.3,27.1-60.3,60.1s25.1,60.1,60.3,60.1S224,105.6,224,72.7z"/>
	<path class="st0" d="M389.7,72.7c0,36.8-28,66.3-66.8,66.3c-38.8,0-66.8-29.5-66.8-66.3s28-66.3,66.8-66.3
		C361.7,6.4,389.7,35.9,389.7,72.7z M383.2,72.7c0-33-25.1-60.1-60.3-60.1c-35.1,0-60.3,27.1-60.3,60.1s25.1,60.1,60.3,60.1
		C358,132.8,383.2,105.6,383.2,72.7z"/>
	<path class="st0" d="M420.7,8.9h6.6v120.9h73.2v6.6h-79.8V8.9z"/>
	<path class="st0" d="M524.1,8.9h6.6v31.7l61.5-31.7l2.9,5.5l-71,37.3V8.9z M564.9,69l38.4,64.1l-5.5,3.3l-35-58.3l-32.2,15.7v42.6
		h-6.6V89.6L564.9,69z"/>
	<path class="st0" d="M711.1,109.8l9.8,24.2l-6,2.4l-8.2-20h-73l-8,20l-6-2.4l9.8-24.2H711.1z M671.2,8.9l26.2,67h-54.3l26.2-67
		H671.2z M652.8,69.4h35l-17.5-45.9L652.8,69.4z"/>
	<path class="st0" d="M717.3,8.9h81.6v6.6h-37.5v120.9h-6.6V15.5h-37.5V8.9z"/>
</g>
<g>
	<path class="st0" d="M382,96.6l-39.2-1.2l32.9-59.9c-1.2-1.7-2.5-3.5-3.7-5.2l-0.2-0.1l-18.5,33.6l-35-56.3c-2.1,0.4-4.3,0.7-6.4,1
		l0,0l21.8,35l-69-0.2c-0.9,2-1.9,4-2.8,6l38.3,0.1l-30.7,58.9c1.5,1.5,3,3,4.4,4.5l18.4-35.4l32.4,57.9c1.1-0.1,2.3-0.2,3.4-0.3
		c0.5-0.1,0.9,0.1,1.1,0.5c0.7-0.2,1.5-0.4,2.2-0.5l-19.3-34.4l67.3,2C380.1,100.5,381,98.5,382,96.6z M308.6,94.4l-13.1-23.3
		l11.3-21.6l30.5,0.1L350,69.9l-13.9,25.3L308.6,94.4z"/>
</g>
</svg>
